<svg width="50" height="51" viewBox="0 0 50 51" fill="none" xmlns="http://www.w3.org/2000/svg">
<path d="M15.0928 0.945757C12.4712 1.06944 10.6809 1.48782 9.11583 2.1028C7.49606 2.73406 6.12318 3.58115 4.75719 4.95206C3.3912 6.32297 2.55003 7.69685 1.92321 9.31908C1.3166 10.8876 0.905619 12.6793 0.789815 15.3024C0.674012 17.9255 0.648387 18.7686 0.6612 25.4596C0.674012 32.1506 0.703579 32.9893 0.830716 35.6178C0.955882 38.2389 1.37277 40.0286 1.98776 41.5942C2.62 43.214 3.4661 44.5864 4.83751 45.9529C6.20892 47.3193 7.5818 48.1585 9.20798 48.7863C10.775 49.392 12.5673 49.8049 15.1898 49.9197C17.8124 50.0345 18.6565 50.0612 25.3455 50.0483C32.0345 50.0355 32.8767 50.006 35.5047 49.8813C38.1327 49.7566 39.9131 49.3368 41.4792 48.7247C43.0989 48.091 44.4723 47.2464 45.8378 45.8745C47.2033 44.5026 48.044 43.1277 48.6703 41.5045C49.2774 39.9375 49.6899 38.1452 49.8037 35.5246C49.9185 32.8947 49.9456 32.055 49.9328 25.365C49.92 18.675 49.8899 17.8363 49.7653 15.2088C49.6406 12.5813 49.2232 10.7969 48.6087 9.23038C47.9755 7.61061 47.1304 6.2392 45.7595 4.87174C44.3885 3.50427 43.0127 2.66408 41.39 2.03924C39.8219 1.43262 38.0307 1.01918 35.4081 0.905842C32.7855 0.792502 31.9414 0.763428 25.2499 0.77624C18.5585 0.789053 17.7208 0.817634 15.0928 0.945757ZM15.3805 45.4872C12.9782 45.3827 11.6739 44.9836 10.8046 44.6494C9.65345 44.2059 8.83347 43.6698 7.96716 42.8119C7.10085 41.9539 6.56865 41.131 6.11923 39.9823C5.78168 39.1131 5.37514 37.8102 5.26278 35.4078C5.14057 32.8114 5.11495 32.0318 5.10066 25.4537C5.08637 18.8756 5.1115 18.097 5.22533 15.4995C5.32783 13.0992 5.72944 11.7933 6.06306 10.9246C6.50656 9.77194 7.04073 8.95343 7.90063 8.08762C8.76054 7.22181 9.58101 6.68862 10.7307 6.2392C11.5989 5.90017 12.9019 5.49708 15.3032 5.38275C17.9016 5.25955 18.6802 5.23492 25.2573 5.22062C31.8345 5.20633 32.615 5.23097 35.2145 5.3453C37.6148 5.44977 38.9211 5.84744 39.7889 6.18302C40.9406 6.62653 41.7601 7.15922 42.6259 8.0206C43.4917 8.88198 44.0254 9.6995 44.4748 10.8516C44.8143 11.7174 45.2174 13.0199 45.3307 15.4227C45.4544 18.0211 45.4825 18.8002 45.4943 25.3768C45.5062 31.9535 45.483 32.7345 45.3692 35.331C45.2642 37.7333 44.866 39.0382 44.5314 39.9084C44.0879 41.0591 43.5533 41.8795 42.6929 42.7449C41.8325 43.6102 41.013 44.1434 39.8629 44.5928C38.9956 44.9313 37.6912 45.3354 35.2918 45.4497C32.6934 45.5719 31.9148 45.5976 25.3352 45.6118C18.7556 45.6261 17.9795 45.5995 15.381 45.4872M35.4668 12.2437C35.4677 12.8285 35.6421 13.3999 35.9679 13.8856C36.2936 14.3713 36.7561 14.7495 37.2967 14.9724C37.8374 15.1952 38.4321 15.2527 39.0055 15.1376C39.5788 15.0225 40.1052 14.7399 40.518 14.3256C40.9307 13.9114 41.2114 13.384 41.3244 12.8102C41.4374 12.2364 41.3777 11.642 41.1529 11.1021C40.928 10.5622 40.5482 10.1011 40.0613 9.77719C39.5744 9.45324 39.0023 9.28095 38.4175 9.28212C37.6335 9.28369 36.8823 9.59656 36.3289 10.1519C35.7756 10.7073 35.4655 11.4597 35.4668 12.2437ZM12.6461 25.4369C12.6599 32.4246 18.3348 38.0763 25.3209 38.0629C32.3071 38.0496 37.9627 32.3753 37.9494 25.3877C37.9361 18.4 32.2597 12.7469 25.2726 12.7607C18.2855 12.7745 12.6328 18.4503 12.6461 25.4369ZM17.0841 25.4281C17.0809 23.8037 17.5594 22.2148 18.4592 20.8623C19.359 19.5099 20.6397 18.4547 22.1392 17.8301C23.6387 17.2055 25.2898 17.0396 26.8836 17.3533C28.4774 17.6671 29.9424 18.4464 31.0933 19.5927C32.2442 20.7391 33.0293 22.201 33.3494 23.7936C33.6695 25.3861 33.5101 27.0378 32.8914 28.5398C32.2728 30.0418 31.2226 31.3266 29.8738 32.2318C28.5249 33.1369 26.9379 33.6217 25.3135 33.625C24.2349 33.6272 23.1664 33.417 22.1691 33.0063C21.1717 32.5955 20.2651 31.9924 19.5009 31.2312C18.7367 30.47 18.1299 29.5657 17.7152 28.57C17.3006 27.5743 17.0861 26.5067 17.0841 25.4281Z" fill="white"/>
</svg>
