<svg width="33" height="33" viewBox="0 0 33 33" fill="none" xmlns="http://www.w3.org/2000/svg">
<path fill-rule="evenodd" clip-rule="evenodd" d="M28.1917 4.79538C25.09 1.70457 20.9647 0.00156814 16.5693 0C7.51217 0 0.141026 7.335 0.137874 16.351C0.136298 19.2332 0.893426 22.0465 2.33126 24.5258L0 33L8.7105 30.7262C11.1103 32.0294 13.8126 32.7154 16.5622 32.7162H16.5693C25.6249 32.7162 32.9969 25.3804 33 16.3643C33.0016 11.9948 31.2943 7.88698 28.1917 4.79616V4.79538ZM16.5693 29.9547H16.5638C14.1136 29.9539 11.7099 29.2984 9.61263 28.0603L9.11388 27.7656L3.94478 29.1149L5.32431 24.0992L4.99971 23.5849C3.63279 21.4209 2.91033 18.9196 2.9119 16.3518C2.91506 8.85845 9.0414 2.7615 16.5749 2.7615C20.2226 2.76307 23.6514 4.17832 26.23 6.74772C28.8086 9.31635 30.2275 12.7318 30.226 16.3628C30.2228 23.857 24.0965 29.9539 16.5693 29.9539V29.9547ZM24.0602 19.7759C23.6497 19.5712 21.6313 18.5833 21.2547 18.4469C20.8781 18.3104 20.6047 18.2422 20.3313 18.6515C20.058 19.0608 19.2709 19.9813 19.0314 20.2533C18.7919 20.5262 18.5523 20.56 18.1418 20.3552C17.7314 20.1506 16.4086 19.7194 14.84 18.3276C13.6197 17.244 12.7955 15.9065 12.556 15.4971C12.3165 15.0879 12.5308 14.8668 12.7356 14.6637C12.92 14.4802 13.1461 14.1862 13.3517 13.9478C13.5574 13.7095 13.6251 13.5386 13.7622 13.2665C13.8993 12.9936 13.8308 12.7553 13.7284 12.5506C13.6259 12.346 12.805 10.3348 12.4623 9.51705C12.129 8.72045 11.7903 8.82865 11.5389 8.81532C11.2994 8.80356 11.026 8.80121 10.7519 8.80121C10.4777 8.80121 10.0333 8.90314 9.65672 9.31243C9.28015 9.72167 8.21967 10.7104 8.21967 12.7207C8.21967 14.7311 9.69063 16.6749 9.89624 16.9477C10.1019 17.2206 12.7915 21.3472 16.9097 23.1176C17.889 23.5386 18.654 23.7903 19.2504 23.9785C20.2337 24.2898 21.1286 24.2459 21.8361 24.1408C22.6248 24.0232 24.2651 23.1521 24.607 22.1978C24.9489 21.2436 24.9489 20.425 24.8465 20.2549C24.7441 20.0848 24.47 19.982 24.0595 19.7774L24.0602 19.7759Z" fill="white"/>
</svg>
