<svg width="221" height="232" viewBox="0 0 221 232" fill="none" xmlns="http://www.w3.org/2000/svg">
<path d="M184.73 134.406C157.301 176.844 92.4845 213.148 67.8063 197.198C43.128 181.247 46.1792 83.021 73.6088 40.5827C101.038 -1.85561 142.459 27.5642 167.138 43.5148C191.816 59.4653 212.16 91.9673 184.73 134.406Z" fill="url(#paint0_linear_26_65)"/>
<path d="M116.695 82.4875C129.346 59.3736 183.696 66.8946 183.696 66.8946C183.696 66.8946 120.908 50.1237 108.186 77.1112C98.1606 98.3795 137.392 121.664 122.163 147.472C110.915 166.533 59.682 160.793 59.682 160.793C59.682 160.793 117.529 175.125 130.344 152.641C142.6 131.137 104.045 105.602 116.695 82.4875Z" fill="white"/>
<defs>
<linearGradient id="paint0_linear_26_65" x1="160.415" y1="39.1523" x2="61.0756" y2="192.847" gradientUnits="userSpaceOnUse">
<stop stop-color="#D44176"/>
<stop offset="1" stop-color="#9B36B4"/>
</linearGradient>
</defs>
</svg>
